# xmcd CD database file
#
# Track frame offsets:
#	150
#	16246
#	35419
#	50555
#	64533
#	81261
#	95295
#	110672
#	128995
#	141928
#	159254
#	173840
#	189437
#
# Disc length: 2727 seconds
#
# Revision: 1
# Processed by: cddbd v1.5.2PL0 Copyright (c) Steve Scherf et al.
# Submitted via: CDex 1.70beta2
#
DISCID=a70aa50d
DTITLE=Jeff Bates - Jeff Bates
DYEAR=2008
DGENRE=Country
TTITLE0=I Can't Have Nothing Nice
TTITLE1=Lonesome
TTITLE2=One Thing
TTITLE3=A Country Girl Can
TTITLE4=Riverbank
TTITLE5=Chevy Don't Let Me Down
TTITLE6=Don't Hate Me For Loving You
TTITLE7=My Wave
TTITLE8=Some Days
TTITLE9=He Wasn't Like Us
TTITLE10=Dead Or Alive
TTITLE11=Country Man
TTITLE12=Somebody's Falling
EXTD=YEAR: 2008
EXTT0=
EXTT1=
EXTT2=
EXTT3=
EXTT4=
EXTT5=
EXTT6=
EXTT7=
EXTT8=
EXTT9=
EXTT10=
EXTT11=
EXTT12=
PLAYORDER=
